<svg width="30" height="22" viewBox="0 0 30 22" fill="none" xmlns="http://www.w3.org/2000/svg">
<path fill-rule="evenodd" clip-rule="evenodd" d="M0 1C0 0.447693 0.447754 0 1 0H29C29.5522 0 30 0.447693 30 1V3C30 3.55231 29.5522 4 29 4H1C0.447754 4 0 3.55231 0 3V1ZM0 10C0 9.44769 0.447754 9 1 9H29C29.5522 9 30 9.44769 30 10V12C30 12.5523 29.5522 13 29 13H1C0.447754 13 0 12.5523 0 12V10ZM1 18C0.447754 18 0 18.4477 0 19V21C0 21.5523 0.447754 22 1 22H29C29.5522 22 30 21.5523 30 21V19C30 18.4477 29.5522 18 29 18H1Z" fill="#BFCDF3"/>
</svg>
